<?xml version="1.0" encoding="UTF-8"?><svg xmlns="http://www.w3.org/2000/svg" viewBox="0 0 299.03 189.94"><defs><style>.d{fill:#fce8eb;}.d,.e,.f,.g,.h,.i,.j{stroke:#1d1d1b;stroke-miterlimit:10;}.e{fill:none;}.f{fill:#fbd9dc;}.g{fill:#fff;}.h{fill:#ef7a97;}.i{fill:#1d1d1b;}.j{fill:#e7305e;}</style></defs><g id="a"/><g id="b"><g id="c"><g><path class="f" d="M296.5,1.79l-118.9,75.37c-6-5.63-15.46-5.51-21.33,.36l-6.52,6.52-6.53-6.52c-2.9-2.91-6.75-4.5-10.85-4.5s-7.79,1.52-10.67,4.32L2.53,1.79c.96-.8,2.21-1.29,3.56-1.29H292.93c1.35,0,2.6,.49,3.57,1.29Z"/><path class="d" d="M129.77,107.48L2.53,188.15c-1.24-1.02-2.03-2.57-2.03-4.3V6.1c0-1.73,.79-3.28,2.03-4.31L121.7,77.34c-.06,.06-.13,.12-.19,.18-2.9,2.89-4.49,6.75-4.49,10.85s1.59,7.96,4.49,10.86l6.53,6.52,1.73,1.73Z"/><path class="f" d="M296.5,188.15c-.97,.8-2.22,1.29-3.57,1.29H6.09c-1.35,0-2.6-.49-3.56-1.29l127.24-80.67,19.98,19.98,19.79-19.79,126.96,80.48Z"/><path class="d" d="M298.53,6.1V183.85c0,1.73-.79,3.28-2.03,4.3l-126.96-80.48,1.92-1.92,6.52-6.52c2.91-2.9,4.5-6.76,4.5-10.86s-1.59-7.95-4.5-10.85c-.12-.12-.25-.25-.38-.36L296.5,1.79c1.24,1.03,2.03,2.58,2.03,4.31Z"/><path class="g" d="M177.98,77.52c-.12-.12-.25-.25-.38-.36-6-5.63-15.46-5.51-21.33,.36l-6.52,6.52-6.53-6.52c-2.9-2.91-6.75-4.5-10.85-4.5s-7.79,1.52-10.67,4.32c-.06,.06-.13,.12-.19,.18-2.9,2.89-4.49,6.75-4.49,10.85s1.59,7.96,4.49,10.86l6.53,6.52,1.73,1.73,19.98,19.98,19.79-19.79,1.92-1.92,6.52-6.52c2.91-2.9,4.5-6.76,4.5-10.86s-1.59-7.95-4.5-10.85Zm-28.23,49.46l-19.69-19.68-1.55-1.55-.24-.24-6.52-6.52c-2.84-2.84-4.39-6.61-4.39-10.62s1.55-7.78,4.39-10.62c.08-.08,.16-.16,.24-.23,.18-.17,.36-.34,.54-.49,.21-.19,.43-.37,.66-.54,.11-.09,.22-.18,.34-.26,.57-.41,1.16-.79,1.77-1.11,.18-.1,.37-.19,.55-.28,.23-.11,.46-.22,.69-.31,.23-.1,.47-.19,.71-.28,.48-.17,.96-.32,1.45-.44,.24-.06,.48-.12,.72-.16,.43-.09,.87-.15,1.31-.2,.1-.02,.21-.02,.32-.03,.44-.04,.88-.06,1.32-.06,4,0,7.78,1.56,10.62,4.39l6.52,6.53,6.54,6.54,14.93,14.93-21.23,21.23Zm6.6-36.34l-6.36-6.36,6.52-6.53c2.84-2.83,6.61-4.39,10.62-4.39,.48,0,.95,.02,1.42,.07,.08,.01,.15,.01,.23,.02,.16,.02,.32,.03,.47,.06,.14,.02,.28,.04,.42,.07,.2,.03,.4,.07,.59,.11,.24,.05,.48,.11,.72,.17,.03,0,.06,0,.09,.02,.04,.01,.09,.03,.14,.04,.25,.07,.5,.14,.74,.23,.01,0,.03,.01,.04,.01s.01,0,.02,.01c.09,.03,.17,.06,.26,.09,.05,.02,.11,.04,.16,.06,.06,.02,.12,.05,.18,.07,.22,.08,.43,.17,.64,.27,.13,.05,.26,.11,.38,.17,.17,.08,.33,.16,.49,.25,.04,.02,.09,.04,.13,.07,.2,.1,.39,.21,.58,.33,.21,.12,.42,.25,.62,.39,.19,.12,.38,.26,.57,.4,.45,.33,.88,.69,1.3,1.07,.14,.14,.28,.27,.42,.41,2.84,2.84,4.4,6.61,4.4,10.62s-1.56,7.78-4.4,10.62l-6.52,6.52-14.87-14.87Z"/><polyline class="e" points="169.54 107.67 169.4 107.57 169.25 107.48"/><polyline class="e" points="121.99 77.52 121.85 77.43 121.7 77.34"/><line class="e" x1="2.53" y1="1.79" x2="2.29" y2="1.64"/><polyline class="e" points="129.77 107.48 129.91 107.39 130.06 107.3"/><path class="e" d="M177.46,77.25h0s-.01,0-.01,0l-.13,.08"/><polyline class="e" points="156.35 90.64 156.2 90.73 156.05 90.82"/><polyline class="e" points="177.46 77.25 177.46 77.26 177.6 77.16"/><line class="e" x1="2.53" y1="188.15" x2="2.43" y2="188.21"/><g><g><path class="g" d="M170.8,73.81c.06,.02,.12,.03,.18,.05-.24-.06-.48-.12-.72-.17,.18,.03,.36,.07,.54,.12Z"/><path class="g" d="M177.86,77.64c-.13-.13-.26-.26-.4-.38,0,0-.01-.01-.01,0-5.95-5.55-15.26-5.42-21.06,.38l-6.76,6.76,6.42,6.42,14.93,14.93-21.23,21.23-19.69-19.68-1.55-1.55-.12-.12-.12,.12,1.64,1.64,19.84,19.83,28.11-28.11c2.97-2.97,4.45-6.85,4.45-10.74s-1.48-7.77-4.45-10.73Zm-.12,21.35l-6.52,6.52-14.87-14.87-6.36-6.36,6.52-6.53c2.84-2.83,6.61-4.39,10.62-4.39,.48,0,.95,.02,1.42,.07,.08,.01,.15,.01,.23,.02,.16,.02,.32,.03,.47,.06,.14,.02,.28,.04,.42,.07,.2,.03,.4,.06,.59,.11,.18,.03,.36,.07,.54,.12,.06,.02,.12,.03,.18,.05,.03,0,.06,0,.09,.02,.04,.01,.09,.03,.14,.04,.25,.07,.5,.14,.74,.23,.01,0,.03,.01,.04,.01s.01,0,.02,.01c.09,.03,.17,.06,.26,.09,.05,.02,.11,.04,.16,.06,.06,.02,.12,.05,.18,.07,.22,.08,.43,.17,.64,.27,.13,.05,.26,.11,.38,.17,.17,.08,.33,.16,.49,.25,.04,.02,.09,.04,.13,.07,.2,.1,.39,.21,.58,.33,.21,.12,.42,.25,.62,.39,.19,.12,.38,.26,.57,.4,.45,.33,.88,.69,1.3,1.07,.14,.14,.28,.27,.42,.41,2.84,2.84,4.4,6.61,4.4,10.62s-1.56,7.78-4.4,10.62Z"/><path class="j" d="M182.14,88.37c0,4.01-1.56,7.78-4.4,10.62l-6.52,6.52-14.87-14.87-6.36-6.36,6.52-6.53c2.84-2.83,6.61-4.39,10.62-4.39,.48,0,.95,.02,1.42,.07,.08,.01,.15,.01,.23,.02,.16,.02,.32,.03,.47,.06,.14,.02,.28,.04,.42,.07,.2,.03,.4,.07,.59,.11,.24,.05,.48,.11,.72,.17,.03,0,.06,0,.09,.02,.04,.01,.09,.03,.14,.04,.25,.07,.5,.14,.74,.23,.01,0,.03,.01,.04,.01s.01,0,.02,.01c.09,.03,.17,.06,.26,.09,.05,.02,.11,.04,.16,.06,.06,.02,.12,.05,.18,.07,.22,.08,.43,.17,.64,.27,.13,.05,.26,.11,.38,.17,.17,.08,.33,.16,.49,.25,.04,.02,.09,.04,.13,.07,.2,.1,.39,.21,.58,.33,.21,.12,.42,.25,.62,.39,.19,.12,.38,.26,.57,.4,.45,.33,.88,.69,1.3,1.07,.14,.14,.28,.27,.42,.41,2.84,2.84,4.4,6.61,4.4,10.62Z"/><path class="i" d="M177.98,77.52c-.12-.12-.25-.25-.38-.36-6-5.63-15.46-5.51-21.33,.36l-6.76,6.76,.24,.24,.24-.24,6.52-6.53c2.84-2.83,6.61-4.39,10.62-4.39,.48,0,.95,.02,1.42,.07,.08,.01,.15,.01,.23,.02,.16,.02,.32,.03,.47,.06,.14,.02,.28,.04,.42,.07,.2,.03,.4,.07,.59,.11,.24,.05,.48,.11,.72,.17,.03,0,.06,0,.09,.02,.04,.01,.09,.03,.14,.04,.25,.07,.5,.14,.74,.23,.01,0,.03,.01,.04,.01s.01,0,.02,.01c.09,.03,.17,.06,.26,.09,.05,.02,.11,.04,.16,.06,.06,.02,.12,.05,.18,.07,.22,.08,.43,.17,.64,.27,.13,.05,.26,.11,.38,.17,.17,.08,.33,.16,.49,.25,.04,.02,.09,.04,.13,.07,.2,.1,.39,.21,.58,.33,.21,.12,.42,.25,.62,.39,.19,.12,.38,.26,.57,.4,.45,.33,.88,.69,1.3,1.07,.14,.14,.28,.27,.42,.41,2.84,2.84,4.4,6.61,4.4,10.62s-1.56,7.78-4.4,10.62l-27.99,27.99-19.69-19.68-1.55-1.55-.24-.24-.12,.12-.11,.12,1.73,1.73,19.98,19.98,19.79-19.79,1.92-1.92,6.52-6.52c2.91-2.9,4.5-6.76,4.5-10.86s-1.59-7.95-4.5-10.85Z"/></g><g><path class="g" d="M171.1,105.63l-14.9-14.9-6.57-6.57-6.53-6.52c-2.96-2.97-6.85-4.45-10.73-4.45s-7.58,1.41-10.52,4.24c-.08,.07-.15,.14-.22,.21-5.93,5.93-5.93,15.54,0,21.47l6.52,6.52,1.76,1.76,19.84,19.83,21.47-21.47-.12-.12Zm-21.35,21.35l-19.69-19.68-1.55-1.55-.24-.24-6.52-6.52c-2.84-2.84-4.39-6.61-4.39-10.62s1.55-7.78,4.39-10.62c.08-.08,.16-.16,.24-.23,.18-.17,.36-.34,.54-.49,.21-.19,.43-.37,.66-.54,.11-.09,.22-.18,.34-.26,.57-.41,1.16-.79,1.77-1.11,.18-.1,.37-.19,.55-.28,.23-.11,.46-.22,.69-.31,.24-.1,.47-.19,.71-.28,.48-.17,.96-.32,1.45-.44,.24-.06,.48-.12,.72-.16,.43-.09,.87-.15,1.31-.2,.11-.01,.21-.02,.32-.03,.44-.04,.88-.06,1.32-.06,4,0,7.78,1.56,10.62,4.39l6.52,6.53,6.54,6.54,14.93,14.93-21.23,21.23Z"/><path class="i" d="M156.35,90.64l-6.36-6.36-.24-.24-6.53-6.52c-2.9-2.91-6.75-4.5-10.85-4.5s-7.79,1.52-10.67,4.32c-.06,.06-.13,.12-.19,.18-2.9,2.89-4.49,6.75-4.49,10.85s1.59,7.96,4.49,10.86l6.53,6.52,1.73,1.73,19.98,19.98,19.79-19.79,1.92-1.92-15.11-15.11Zm-6.6,36.34l-19.69-19.68-1.55-1.55-.24-.24-6.52-6.52c-2.84-2.84-4.39-6.61-4.39-10.62s1.55-7.78,4.39-10.62c.08-.08,.16-.16,.24-.23,.18-.17,.36-.34,.54-.49,.21-.19,.43-.37,.66-.54,.11-.09,.22-.18,.34-.26,.57-.41,1.16-.79,1.77-1.11,.18-.1,.36-.2,.55-.28,.23-.11,.46-.22,.69-.31,.23-.1,.47-.19,.71-.28,.48-.17,.96-.32,1.45-.44,.24-.06,.48-.12,.72-.16,.43-.09,.87-.15,1.31-.2,.1-.02,.21-.02,.32-.03,.44-.04,.88-.06,1.32-.06,4,0,7.78,1.56,10.62,4.39l6.52,6.53,6.54,6.54,14.93,14.93-21.23,21.23Z"/><path class="h" d="M170.98,105.75l-21.23,21.23-19.69-19.68-1.55-1.55-.24-.24-6.52-6.52c-2.84-2.84-4.39-6.61-4.39-10.62s1.55-7.78,4.39-10.62c.08-.08,.16-.16,.24-.23,.18-.17,.36-.34,.54-.49,.21-.19,.43-.37,.66-.54,.11-.09,.22-.18,.34-.26,.57-.41,1.16-.79,1.77-1.11,.18-.1,.37-.19,.55-.28,.23-.11,.46-.22,.69-.31,.23-.1,.47-.19,.71-.28,.48-.17,.96-.32,1.45-.44,.24-.06,.48-.12,.72-.16,.43-.09,.87-.15,1.31-.2,.1-.02,.21-.02,.32-.03,.44-.04,.88-.06,1.32-.06,4,0,7.78,1.56,10.62,4.39l6.52,6.53,6.54,6.54,14.93,14.93Z"/></g></g></g></g></g></svg>